# xmcd CD database file
#
# Track frame offsets:
#	150
#	14856
#	34068
#	48713
#	65049
#	84701
#	101826
#	120133
#	138559
#	158901
#	182254
#	197709
#	216995
#	233480
#	255515
#	283604
#
# Disc length: 3880 seconds
#
# Revision: 0
# Processed by: cddbd v1.5.1PL0 Copyright (c) Steve Scherf et al.
# Submitted via: CDex 1.51
#
DISCID=e60f2610
DTITLE=日の出木工所 - MY MEMORY FOREVER
DYEAR=1900
DGENRE=未分類 (日本)
TTITLE0=▲
TTITLE1=ブラッディーブラッディー
TTITLE2=体力限界
TTITLE3=海老マヨネーズ
TTITLE4=バリ
TTITLE5=not strong hero
TTITLE6=JUST ver.2
TTITLE7=パンダコビート
TTITLE8=モリＭＡＮremix ver.2
TTITLE9=ブルーサイド予備校
TTITLE10=DISCO MATCH
TTITLE11=SpeakSpace
TTITLE12=第二小
TTITLE13=amadam
TTITLE14=HAL
TTITLE15=皮膚呼吸 (bonus track)
EXTD=
EXTT0=
EXTT1=
EXTT2=
EXTT3=
EXTT4=
EXTT5=
EXTT6=
EXTT7=
EXTT8=
EXTT9=
EXTT10=
EXTT11=
EXTT12=
EXTT13=
EXTT14=
EXTT15=
PLAYORDER=
